<?xml version="1.0" standalone="no"?>
<!DOCTYPE svg PUBLIC "-//W3C//DTD SVG 20010904//EN"
 "http://www.w3.org/TR/2001/REC-SVG-20010904/DTD/svg10.dtd">
<svg version="1.0" xmlns="http://www.w3.org/2000/svg"
 width="1103.000000pt" height="1280.000000pt" viewBox="0 0 1103.000000 1280.000000"
 preserveAspectRatio="xMidYMid meet">
<g transform="translate(0.000000,1280.000000) scale(0.100000,-0.100000)"
fill="#000000" stroke="none">
<path d="M4322 12700 c-93 -228 -145 -557 -145 -920 0 -378 47 -660 165 -990
55 -154 227 -485 228 -438 0 10 -13 100 -30 200 -75 464 -141 1127 -170 1728
-7 129 -15 289 -18 355 l-7 120 -23 -55z"/>
<path d="M3652 11873 c-99 -257 -139 -519 -129 -833 13 -415 126 -787 328
-1087 54 -80 75 -100 66 -62 -49 196 -127 749 -162 1134 -8 94 -17 197 -20
230 -13 137 -35 526 -35 608 0 48 -4 87 -9 87 -5 0 -23 -35 -39 -77z"/>
<path d="M5618 11623 c-117 -254 -200 -556 -229 -831 -15 -143 -6 -437 16
-557 20 -109 82 -299 126 -386 47 -95 121 -206 127 -190 2 7 -1 61 -7 120 -24
222 -31 398 -31 771 0 392 7 568 36 948 9 117 14 215 12 218 -3 2 -25 -40 -50
-93z"/>
<path d="M4617 10210 c16 -92 88 -363 128 -480 48 -140 100 -251 164 -350 22
-34 49 -86 60 -114 142 -380 26 -1149 -356 -2356 l-58 -185 -303 -3 c-259 -2
-303 0 -308 12 -3 9 34 88 84 178 489 888 711 1602 638 2048 -35 211 -122 353
-279 456 -131 87 -231 167 -329 265 -54 53 -98 91 -98 84 0 -24 81 -299 116
-394 45 -120 105 -236 160 -312 91 -123 115 -208 115 -398 -1 -342 -142 -827
-446 -1536 -120 -279 -172 -392 -184 -399 -4 -3 -109 -10 -232 -16 -543 -26
-992 -79 -1353 -161 -555 -126 -916 -327 -916 -511 0 -63 25 -110 92 -174 67
-64 119 -100 233 -156 718 -359 2198 -506 3740 -372 645 56 1294 156 1965 305
340 75 957 235 947 246 -2 2 -127 -21 -278 -51 -965 -193 -2170 -296 -3453
-296 -1510 0 -2650 154 -2886 390 -50 50 -59 92 -32 153 127 287 795 463 1910
503 174 6 192 5 192 -10 0 -9 -57 -134 -126 -279 -161 -334 -209 -436 -219
-467 l-8 -25 23 20 c52 46 313 423 460 663 l63 103 323 -3 c177 -2 325 -6 329
-10 4 -4 -48 -171 -115 -373 -67 -201 -120 -373 -118 -382 7 -36 164 236 320
552 49 99 94 185 101 191 9 9 73 9 262 -2 334 -18 375 -22 375 -40 0 -8 -76
-166 -170 -351 -93 -185 -170 -343 -170 -352 1 -36 208 233 395 514 65 99 124
183 129 187 6 5 43 6 81 3 39 -3 207 -15 375 -25 559 -37 1125 -77 1758 -126
496 -38 488 -33 -83 51 -565 83 -1243 164 -1715 205 -306 26 -320 28 -320 45
0 8 19 45 41 82 151 246 349 630 460 890 172 407 252 720 252 998 1 180 -15
265 -72 380 -57 114 -111 170 -262 270 -76 51 -169 124 -225 177 -89 86 -94
89 -94 62 0 -41 45 -234 76 -329 37 -112 86 -212 138 -283 100 -135 121 -213
113 -422 -9 -227 -67 -469 -203 -844 -104 -286 -385 -927 -424 -966 -13 -13
-34 -14 -140 -8 -69 4 -208 12 -309 17 -101 5 -187 13 -192 18 -6 6 26 93 79
219 261 613 430 1165 504 1644 18 119 22 188 22 385 0 213 -2 252 -22 344 -30
137 -72 243 -131 333 -54 82 -105 132 -236 235 -88 70 -238 218 -323 318 l-42
50 7 -35z"/>
<path d="M9596 6085 c-323 -61 -648 -271 -916 -593 -81 -96 -175 -226 -187
-258 -4 -10 36 18 88 62 260 220 527 379 717 428 91 24 196 21 291 -9 434
-137 379 -558 -157 -1205 -114 -137 -343 -376 -501 -524 -589 -548 -1093 -878
-1588 -1041 -46 -15 -83 -29 -83 -32 0 -3 37 -2 82 2 498 43 1045 306 1620
780 169 139 512 481 652 650 442 532 690 1036 673 1365 -3 52 -12 115 -21 140
-38 105 -139 192 -261 226 -85 23 -308 28 -409 9z"/>
<path d="M8218 5893 c7 -3 16 -2 19 1 4 3 -2 6 -13 5 -11 0 -14 -3 -6 -6z"/>
<path d="M8488 5667 c-1048 -2080 -2057 -3259 -3073 -3590 -556 -182 -1163
-106 -1728 214 -719 408 -1463 1224 -2397 2629 -56 85 -107 160 -112 165 -15
16 85 -183 185 -365 687 -1257 1355 -2122 2028 -2627 304 -228 638 -387 954
-455 100 -21 135 -23 375 -23 207 0 290 4 378 18 357 57 692 180 1007 370 989
596 1848 1881 2428 3637 61 184 83 260 75 260 -2 0 -56 -105 -120 -233z"/>
<path d="M7282 2555 c14 -14 412 -52 883 -85 476 -33 802 -81 1325 -196 319
-69 411 -106 511 -201 310 -295 -80 -840 -892 -1248 -540 -272 -1150 -439
-1864 -512 -211 -21 -821 -24 -1120 -5 -110 7 -306 20 -435 28 -1313 81 -2539
227 -3445 409 -972 195 -1566 434 -1683 677 -29 60 -29 143 0 205 111 236 639
473 1593 714 127 32 219 58 205 58 -28 1 -299 -45 -525 -88 -925 -179 -1553
-402 -1746 -619 -45 -50 -89 -138 -89 -176 0 -43 60 -148 118 -205 265 -264
1037 -537 2317 -820 1158 -256 2261 -413 3245 -461 124 -6 295 -15 380 -20
199 -13 514 -13 705 0 83 5 238 14 345 20 1351 74 2520 388 3313 891 333 211
607 486 607 609 0 46 -36 168 -71 239 -37 74 -145 193 -234 256 -492 351
-1526 535 -2999 535 -247 0 -447 -2 -444 -5z"/>
</g>
</svg>
